<?xml version="1.0" encoding="UTF-8"?>
<svg id="Vrstva_1" data-name="Vrstva 1" xmlns="http://www.w3.org/2000/svg" viewBox="0 0 198.38 198.38">
  <defs>
    <style>
      .cls-1 {
        fill: #656973;
        stroke-width: 0px;
      }
    </style>
  </defs>
  <path class="cls-1" d="M106.46,94.1s0-.01,0-.02l-9.15-9.15-8.32,8.32c.09.27.15.55.15.85v20.07h17.32v-20.07Z"/>
  <path class="cls-1" d="M172.47,0H25.91C11.6,0,0,11.6,0,25.91v146.55c0,14.31,11.6,25.91,25.91,25.91h146.55c14.31,0,25.91-11.6,25.91-25.91V25.91c0-14.31-11.6-25.91-25.91-25.91ZM126.89,48.77c.26-.67,3.84-.8,10.98-1.02,5.55-.17,7.68-.11,10.21,1.02.91.4,3.07,1.37,4.73,3.34,3.11,3.72,2.17,8.26,1.66,17.08-.68,11.78.28,16.68-.77,16.85-1.57.26-1.66-11.14-9.7-21.63-7.71-10.06-18.06-13.2-17.11-15.65ZM70.98,57.19c14.91-14.18,36.05-8.37,39.57-7.4,11.82,3.25,19.09,10.57,22.21,13.79,9.83,10.14,12.71,21.19,13.28,23.49,2.24,9.15,1.23,16.51.51,21.45-.81,5.51-2.6,12.62-3.83,12.51-1.08-.1-.81-5.68-1.79-12.26-.62-4.17-2.86-18.2-12.77-29.87-3.14-3.7-9.85-11.61-21.7-14.55-2.31-.57-12.88-2.96-24.26,2.04-5.75,2.53-9.63,6.04-11.49,7.91-4.19,4.22-6.58,8.69-7.91,11.23-1.94,3.69-2.3,5.43-2.55,5.36-.85-.23-1.98-21.61,10.72-33.7ZM83.02,99.23c-1.08,1.08-2.82,1.08-3.9,0s-1.08-2.82,0-3.9l16.14-16.14c.56-.56,1.31-.82,2.05-.8.74-.03,1.49.23,2.05.8l16.14,16.14c1.08,1.08,1.08,2.82,0,3.9-.96.96-2.46,1.06-3.53.3v17.41c0,1.52-1.23,2.76-2.76,2.76h-22.83c-1.52,0-2.76-1.23-2.76-2.76v-18.31l-.61.61ZM105.96,150.64c-9.29,1.86-16.72.18-20.68-.77-8.84-2.1-15.04-5.96-17.87-7.91-2.88-1.98-9.2-6.76-14.55-15.06-2-3.1-4.76-8.1-6.64-14.81-.43-1.56-5.45-20.5,3.32-36,.49-.86,2.51-4.43,3.57-4.09,1.57.5-1.28,8.61-.26,19.15.89,9.15,4.29,15.84,5.87,18.89,2.06,3.97,5.75,10.89,13.53,16.85,3.23,2.48,9.56,7.2,19.15,8.43,2.75.35,11,1.3,19.91-3.06,1.74-.85,9.57-4.87,14.55-13.53,3.68-6.41,4.1-12.37,5.62-12.26,1.4.11,2.05,5.22,2.3,7.15.7,5.45,1.56,12.15-2.04,19.4-3.37,6.78-8.71,10.17-12,12.26-1.05.66-6.16,3.83-13.79,5.36ZM154.98,131.74c-.27,3.24-.42,5.87-.51,7.66-.23,4.81-.16,6.71-1.62,8.57-1.03,1.31-2.32,2.02-3.23,2.41-2.58,1.3-5.07,1.11-6.38,1.02-8.29-.55-16.73.79-16.85-.26-.08-.69,3.09-.96,7.69-3.69,3.7-2.19,6.04-4.63,7.11-5.76,1.28-1.35,4.1-4.55,7.66-12.77,3.91-9.01,4.51-14.64,5.36-14.55.62.06,1.18,3.15.77,17.36Z"/>
</svg>